<svg width="204" height="286" viewBox="0 0 204 286" fill="none" xmlns="http://www.w3.org/2000/svg">
<path d="M106.733 151.416C106.733 153.495 106.765 155.573 106.726 157.648C106.659 161.342 107.882 164.717 109.565 167.87C110.487 169.602 111.912 171.154 113.379 172.494C117.041 175.845 121.286 177.997 126.397 178.118C127.468 178.142 127.719 177.746 127.708 176.76C127.669 172.367 127.74 167.973 127.68 163.579C127.592 157.28 125.245 152.014 120.543 147.716C116.991 144.467 112.802 143.021 108.158 142.562C106.839 142.431 106.74 142.555 106.737 143.856C106.726 146.376 106.737 148.896 106.733 151.416Z" stroke="#F4EED3" stroke-miterlimit="10"/>
<path d="M151.14 151.399C151.101 151.399 151.066 151.399 151.027 151.395C151.027 148.808 151.009 146.217 151.037 143.629C151.048 142.788 150.716 142.371 149.892 142.548C147.439 143.074 144.862 143.325 142.575 144.269C138.57 145.923 135.435 148.723 133.198 152.551C131.31 155.778 130.14 159.161 130.094 162.887C130.038 167.588 130.091 172.289 130.062 176.986C130.059 177.817 130.338 178.11 131.183 178.114C134.226 178.121 137.005 177.252 139.67 175.845C145.912 172.547 149.645 167.379 150.737 160.469C151.207 157.5 151.023 154.428 151.136 151.402L151.14 151.399Z" stroke="#F4EED3" stroke-miterlimit="10"/>
<path d="M106.733 116.147C106.733 118.225 106.765 120.304 106.726 122.379C106.659 126.072 107.882 129.448 109.565 132.601C110.487 134.333 111.912 135.885 113.379 137.225C117.044 140.572 121.289 142.725 126.397 142.845C127.468 142.869 127.719 142.474 127.708 141.487C127.669 137.094 127.74 132.7 127.68 128.306C127.592 122.008 125.245 116.741 120.543 112.443C116.991 109.194 112.802 107.749 108.158 107.289C106.839 107.158 106.74 107.282 106.737 108.583C106.726 111.103 106.737 113.623 106.733 116.143V116.147Z" stroke="#F4EED3" stroke-miterlimit="10"/>
<path d="M151.14 116.129C151.101 116.129 151.066 116.129 151.027 116.126C151.027 113.538 151.009 110.947 151.037 108.36C151.048 107.519 150.716 107.102 149.892 107.278C147.439 107.805 144.862 108.056 142.575 109C138.57 110.654 135.435 113.454 133.198 117.282C131.31 120.509 130.14 123.892 130.094 127.617C130.038 132.318 130.091 137.019 130.062 141.717C130.059 142.548 130.338 142.841 131.183 142.845C134.226 142.852 137.005 141.982 139.67 140.575C145.912 137.278 149.645 132.11 150.737 125.199C151.207 122.23 151.023 119.159 151.136 116.133L151.14 116.129Z" stroke="#F4EED3" stroke-miterlimit="10"/>
<path d="M106.733 80.8742C106.733 82.9526 106.765 85.031 106.726 87.1059C106.659 90.7996 107.882 94.1753 109.565 97.3282C110.487 99.0602 111.912 100.612 113.379 101.952C117.044 105.299 121.289 107.452 126.397 107.572C127.468 107.597 127.719 107.201 127.708 106.215C127.669 101.821 127.74 97.4272 127.68 93.0336C127.592 86.7347 125.245 81.468 120.543 77.1698C116.991 73.9214 112.802 72.4757 108.158 72.0162C106.839 71.8854 106.74 72.0091 106.737 73.3099C106.726 75.8301 106.737 78.3504 106.733 80.8706V80.8742Z" stroke="#F4EED3" stroke-miterlimit="10"/>
<path d="M151.14 80.8565C151.101 80.8565 151.066 80.8565 151.027 80.8529C151.027 78.2655 151.009 75.6746 151.037 73.0872C151.048 72.2459 150.716 71.8288 149.892 72.0056C147.439 72.5322 144.862 72.7832 142.575 73.727C138.57 75.3812 135.435 78.1807 133.198 82.0088C131.31 85.236 130.14 88.6187 130.094 92.3443C130.038 97.0455 130.091 101.747 130.062 106.444C130.059 107.275 130.338 107.568 131.183 107.572C134.226 107.579 137.005 106.709 139.67 105.303C145.912 102.005 149.645 96.8369 150.737 89.9266C151.207 86.9574 151.023 83.8857 151.136 80.86L151.14 80.8565Z" stroke="#F4EED3" stroke-miterlimit="10"/>
<path d="M106.733 45.6013C106.733 47.6797 106.765 49.7581 106.726 51.833C106.659 55.5268 107.882 58.9024 109.565 62.0554C110.487 63.7874 111.912 65.3391 113.379 66.6788C117.044 70.0261 121.289 72.1788 126.397 72.299C127.468 72.3237 127.719 71.9278 127.708 70.9416C127.669 66.548 127.74 62.1543 127.68 57.7607C127.592 51.4618 125.245 46.1951 120.543 41.8969C116.991 38.6485 112.802 37.2028 108.158 36.7433C106.839 36.6125 106.74 36.7362 106.737 38.037C106.726 40.5573 106.737 43.0775 106.733 45.5978V45.6013Z" stroke="#F4EED3" stroke-miterlimit="10"/>
<path d="M151.14 45.5872C151.101 45.5872 151.066 45.5871 151.027 45.5836C151.027 42.9962 151.009 40.4053 151.037 37.8179C151.048 36.9766 150.716 36.5595 149.892 36.7362C147.439 37.2629 144.862 37.5139 142.575 38.4576C138.57 40.1119 135.435 42.9114 133.198 46.7395C131.31 49.9667 130.14 53.3494 130.094 57.075C130.038 61.7761 130.091 66.4773 130.062 71.1749C130.059 72.0056 130.338 72.299 131.183 72.3025C134.226 72.3096 137.005 71.44 139.67 70.0332C145.912 66.7353 149.645 61.5676 150.737 54.6572C151.207 51.6881 151.023 48.6164 151.136 45.5907L151.14 45.5872Z" stroke="#F4EED3" stroke-miterlimit="10"/>
<path d="M106.733 10.332C106.733 12.4104 106.765 14.4888 106.726 16.5637C106.659 20.2574 107.882 23.6331 109.565 26.786C110.487 28.518 111.912 30.0698 113.379 31.4094C117.044 34.7568 121.289 36.9094 126.397 37.0296C127.468 37.0544 127.719 36.6585 127.708 35.6723C127.669 31.2787 127.74 26.885 127.68 22.4914C127.592 16.1925 125.245 10.9258 120.543 6.62758C116.991 3.37918 112.802 1.93349 108.158 1.47398C106.839 1.34319 106.74 1.46691 106.737 2.76768C106.726 5.28793 106.737 7.80817 106.733 10.3284V10.332Z" stroke="#F4EED3" stroke-miterlimit="10"/>
<path d="M151.14 10.3143C151.101 10.3143 151.066 10.3143 151.027 10.3108C151.027 7.72335 151.009 5.1324 151.037 2.54499C151.048 1.70373 150.716 1.28664 149.892 1.46337C147.439 1.99005 144.862 2.24101 142.575 3.18478C138.57 4.83902 135.435 7.63851 133.198 11.4666C131.31 14.6938 130.14 18.0765 130.094 21.8021C130.038 26.5033 130.091 31.2044 130.062 35.902C130.059 36.7327 130.338 37.0261 131.183 37.0296C134.226 37.0367 137.005 36.1671 139.67 34.7603C145.912 31.4625 149.645 26.2947 150.737 19.3843C151.207 16.4152 151.023 13.3435 151.136 10.3178L151.14 10.3143Z" stroke="#F4EED3" stroke-miterlimit="10"/>
<path d="M159.594 222.612C159.594 224.69 159.626 226.768 159.587 228.843C159.519 232.537 160.742 235.913 162.425 239.066C163.348 240.798 164.772 242.349 166.239 243.689C169.901 247.04 174.146 249.193 179.257 249.313C180.328 249.338 180.579 248.942 180.569 247.956C180.53 243.562 180.6 239.168 180.54 234.775C180.452 228.476 178.105 223.209 173.404 218.911C169.851 215.662 165.663 214.217 161.018 213.757C159.7 213.626 159.601 213.75 159.597 215.051C159.587 217.571 159.597 220.091 159.594 222.612Z" stroke="#F4EED3" stroke-miterlimit="10"/>
<path d="M204 222.594C203.961 222.594 203.926 222.594 203.887 222.59C203.887 220.003 203.869 217.412 203.898 214.825C203.908 213.983 203.576 213.566 202.752 213.743C200.299 214.27 197.723 214.521 195.436 215.464C191.431 217.119 188.296 219.918 186.058 223.746C184.171 226.974 183.001 230.356 182.955 234.082C182.898 238.783 182.951 243.484 182.923 248.182C182.919 249.012 183.198 249.306 184.043 249.309C187.087 249.316 189.865 248.447 192.53 247.04C198.772 243.742 202.505 238.574 203.597 231.664C204.067 228.695 203.884 225.623 203.997 222.598L204 222.594Z" stroke="#F4EED3" stroke-miterlimit="10"/>
<path d="M159.594 187.342C159.594 189.421 159.626 191.499 159.587 193.574C159.519 197.268 160.742 200.643 162.425 203.796C163.348 205.528 164.772 207.08 166.239 208.42C169.904 211.767 174.15 213.92 179.257 214.04C180.328 214.065 180.579 213.669 180.569 212.683C180.53 208.289 180.6 203.895 180.54 199.502C180.452 193.203 178.105 187.936 173.404 183.638C169.851 180.39 165.663 178.944 161.018 178.484C159.7 178.354 159.601 178.477 159.597 179.778C159.587 182.298 159.597 184.819 159.594 187.339V187.342Z" stroke="#F4EED3" stroke-miterlimit="10"/>
<path d="M204 187.325C203.961 187.325 203.926 187.325 203.887 187.321C203.887 184.734 203.869 182.143 203.898 179.555C203.908 178.714 203.576 178.297 202.752 178.474C200.299 179 197.723 179.251 195.436 180.195C191.431 181.849 188.296 184.649 186.058 188.477C184.171 191.704 183.001 195.087 182.955 198.812C182.898 203.514 182.951 208.215 182.923 212.912C182.919 213.743 183.198 214.036 184.043 214.04C187.087 214.047 189.865 213.178 192.53 211.771C198.772 208.473 202.505 203.305 203.597 196.395C204.067 193.426 203.884 190.354 203.997 187.328L204 187.325Z" stroke="#F4EED3" stroke-miterlimit="10"/>
<path d="M159.594 152.069C159.594 154.148 159.626 156.226 159.587 158.301C159.519 161.995 160.742 165.371 162.425 168.524C163.348 170.256 164.772 171.807 166.239 173.147C169.904 176.494 174.15 178.647 179.257 178.767C180.328 178.792 180.579 178.396 180.569 177.41C180.53 173.016 180.6 168.623 180.54 164.229C180.452 157.93 178.105 152.663 173.404 148.365C169.851 145.117 165.663 143.671 161.018 143.211C159.7 143.081 159.601 143.204 159.597 144.505C159.587 147.025 159.597 149.546 159.594 152.066V152.069Z" stroke="#F4EED3" stroke-miterlimit="10"/>
<path d="M204 152.052C203.961 152.052 203.926 152.052 203.887 152.048C203.887 149.461 203.869 146.87 203.898 144.283C203.908 143.441 203.576 143.024 202.752 143.201C200.299 143.728 197.723 143.979 195.436 144.922C191.431 146.577 188.296 149.376 186.058 153.204C184.171 156.431 183.001 159.814 182.955 163.54C182.898 168.241 182.951 172.942 182.923 177.64C182.919 178.47 183.198 178.764 184.043 178.767C187.087 178.774 189.865 177.905 192.53 176.498C198.772 173.2 202.505 168.032 203.597 161.122C204.067 158.153 203.884 155.081 203.997 152.055L204 152.052Z" stroke="#F4EED3" stroke-miterlimit="10"/>
<path d="M159.594 116.797C159.594 118.875 159.626 120.953 159.587 123.028C159.519 126.722 160.742 130.098 162.425 133.251C163.348 134.983 164.772 136.534 166.239 137.874C169.904 141.221 174.15 143.374 179.257 143.494C180.328 143.519 180.579 143.123 180.569 142.137C180.53 137.743 180.6 133.35 180.54 128.956C180.452 122.657 178.105 117.39 173.404 113.092C169.851 109.844 165.663 108.398 161.018 107.939C159.7 107.808 159.601 107.932 159.597 109.232C159.587 111.753 159.597 114.273 159.594 116.793V116.797Z" stroke="#F4EED3" stroke-miterlimit="10"/>
<path d="M204 116.782C203.961 116.782 203.926 116.782 203.887 116.779C203.887 114.192 203.869 111.601 203.898 109.013C203.908 108.172 203.576 107.755 202.752 107.932C200.299 108.458 197.723 108.709 195.436 109.653C191.431 111.307 188.296 114.107 186.058 117.935C184.171 121.162 183.001 124.545 182.955 128.27C182.898 132.971 182.951 137.673 182.923 142.37C182.919 143.201 183.198 143.494 184.043 143.498C187.087 143.505 189.865 142.635 192.53 141.229C198.772 137.931 202.505 132.763 203.597 125.853C204.067 122.883 203.884 119.812 203.997 116.786L204 116.782Z" stroke="#F4EED3" stroke-miterlimit="10"/>
<path d="M159.594 81.5273C159.594 83.6057 159.626 85.6841 159.587 87.759C159.519 91.4527 160.742 94.8284 162.425 97.9813C163.348 99.7134 164.772 101.265 166.239 102.605C169.904 105.952 174.15 108.105 179.257 108.225C180.328 108.25 180.579 107.854 180.569 106.868C180.53 102.474 180.6 98.0803 180.54 93.6867C180.452 87.3878 178.105 82.1211 173.404 77.8229C169.851 74.5745 165.663 73.1288 161.018 72.6693C159.7 72.5385 159.601 72.6622 159.597 73.963C159.587 76.4832 159.597 79.0035 159.594 81.5237V81.5273Z" stroke="#F4EED3" stroke-miterlimit="10"/>
<path d="M204 81.5096C203.961 81.5096 203.926 81.5096 203.887 81.5061C203.887 78.9187 203.869 76.3277 203.898 73.7403C203.908 72.899 203.576 72.482 202.752 72.6587C200.299 73.1854 197.723 73.4363 195.436 74.3801C191.431 76.0343 188.296 78.8338 186.058 82.6619C184.171 85.8891 183.001 89.2718 182.955 92.9974C182.898 97.6986 182.951 102.4 182.923 107.097C182.919 107.928 183.198 108.221 184.043 108.225C187.087 108.232 189.865 107.362 192.53 105.956C198.772 102.658 202.505 97.49 203.597 90.5797C204.067 87.6105 203.884 84.5388 203.997 81.5131L204 81.5096Z" stroke="#F4EED3" stroke-miterlimit="10"/>
<path d="M1.01264 258.296C1.01264 260.375 1.04445 262.453 1.00557 264.528C0.938407 268.222 2.16142 271.597 3.84394 274.75C4.7665 276.482 6.19099 278.034 7.65789 279.374C11.3198 282.725 15.565 284.877 20.6762 284.997C21.7472 285.022 21.9982 284.626 21.9876 283.64C21.9487 279.246 22.0194 274.853 21.9593 270.459C21.871 264.16 19.5239 258.894 14.8227 254.595C11.2704 251.347 7.08173 249.901 2.43712 249.442C1.11868 249.311 1.01971 249.435 1.01617 250.736C1.00557 253.256 1.01617 255.776 1.01264 258.296Z" stroke="#F4EED3" stroke-miterlimit="10"/>
<path d="M45.4192 258.279C45.3803 258.279 45.345 258.279 45.3061 258.275C45.3061 255.688 45.2884 253.097 45.3167 250.509C45.3273 249.668 44.995 249.251 44.1714 249.428C41.7184 249.954 39.1416 250.205 36.8546 251.149C32.8498 252.803 29.7145 255.603 27.477 259.431C25.5895 262.658 24.4195 266.041 24.3735 269.766C24.317 274.468 24.37 279.169 24.3417 283.866C24.3382 284.697 24.6174 284.99 25.4622 284.994C28.5056 285.001 31.2839 284.131 33.9491 282.725C40.1914 279.427 43.924 274.259 45.0162 267.349C45.4864 264.379 45.3026 261.308 45.4157 258.282L45.4192 258.279Z" stroke="#F4EED3" stroke-miterlimit="10"/>
<path d="M1.01264 223.027C1.01264 225.105 1.04445 227.184 1.00557 229.259C0.938407 232.952 2.16142 236.328 3.84394 239.481C4.7665 241.213 6.19099 242.765 7.65789 244.104C11.3234 247.452 15.5686 249.604 20.6762 249.725C21.7472 249.749 21.9982 249.353 21.9876 248.367C21.9487 243.974 22.0194 239.58 21.9593 235.186C21.871 228.887 19.5239 223.621 14.8227 219.323C11.2704 216.074 7.08173 214.628 2.43712 214.169C1.11868 214.038 1.01971 214.162 1.01617 215.463C1.00557 217.983 1.01617 220.503 1.01264 223.023V223.027Z" stroke="#F4EED3" stroke-miterlimit="10"/>
<path d="M45.4192 223.009C45.3803 223.009 45.345 223.009 45.3061 223.006C45.3061 220.418 45.2884 217.827 45.3167 215.24C45.3273 214.399 44.995 213.982 44.1714 214.158C41.7184 214.685 39.1416 214.936 36.8546 215.88C32.8498 217.534 29.7145 220.333 27.477 224.162C25.5895 227.389 24.4195 230.771 24.3735 234.497C24.317 239.198 24.37 243.899 24.3417 248.597C24.3382 249.428 24.6174 249.721 25.4622 249.725C28.5056 249.732 31.2839 248.862 33.9491 247.455C40.1914 244.157 43.924 238.99 45.0162 232.079C45.4864 229.11 45.3026 226.038 45.4157 223.013L45.4192 223.009Z" stroke="#F4EED3" stroke-miterlimit="10"/>
<path d="M1.01264 187.754C1.01264 189.832 1.04445 191.911 1.00557 193.986C0.938407 197.68 2.16142 201.055 3.84394 204.208C4.7665 205.94 6.19099 207.492 7.65789 208.832C11.3234 212.179 15.5686 214.332 20.6762 214.452C21.7472 214.476 21.9982 214.081 21.9876 213.094C21.9487 208.701 22.0194 204.307 21.9593 199.913C21.871 193.615 19.5239 188.348 14.8227 184.05C11.2704 180.801 7.08173 179.356 2.43712 178.896C1.11868 178.765 1.01971 178.889 1.01617 180.19C1.00557 182.71 1.01617 185.23 1.01264 187.751V187.754Z" stroke="#F4EED3" stroke-miterlimit="10"/>
<path d="M45.4192 187.736C45.3803 187.736 45.345 187.736 45.3061 187.733C45.3061 185.145 45.2884 182.554 45.3167 179.967C45.3273 179.126 44.995 178.709 44.1714 178.885C41.7184 179.412 39.1416 179.663 36.8546 180.607C32.8498 182.261 29.7145 185.061 27.477 188.889C25.5895 192.116 24.4195 195.499 24.3735 199.224C24.317 203.925 24.37 208.627 24.3417 213.324C24.3382 214.155 24.6174 214.448 25.4622 214.452C28.5056 214.459 31.2839 213.589 33.9491 212.182C40.1914 208.885 43.924 203.717 45.0162 196.806C45.4864 193.837 45.3026 190.766 45.4157 187.74L45.4192 187.736Z" stroke="#F4EED3" stroke-miterlimit="10"/>
<path d="M1.01264 152.481C1.01264 154.56 1.04445 156.638 1.00557 158.713C0.938407 162.407 2.16142 165.782 3.84394 168.935C4.7665 170.667 6.19099 172.219 7.65789 173.559C11.3234 176.906 15.5686 179.059 20.6762 179.179C21.7472 179.204 21.9982 178.808 21.9876 177.822C21.9487 173.428 22.0194 169.034 21.9593 164.641C21.871 158.342 19.5239 153.075 14.8227 148.777C11.2704 145.528 7.08173 144.083 2.43712 143.623C1.11868 143.492 1.01971 143.616 1.01617 144.917C1.00557 147.437 1.01617 149.957 1.01264 152.478V152.481Z" stroke="#F4EED3" stroke-miterlimit="10"/>
<path d="M45.4192 152.467C45.3803 152.467 45.345 152.467 45.3061 152.463C45.3061 149.876 45.2884 147.285 45.3167 144.698C45.3273 143.856 44.995 143.439 44.1714 143.616C41.7184 144.143 39.1416 144.394 36.8546 145.338C32.8498 146.992 29.7145 149.791 27.477 153.619C25.5895 156.847 24.4195 160.229 24.3735 163.955C24.317 168.656 24.37 173.357 24.3417 178.055C24.3382 178.885 24.6174 179.179 25.4622 179.182C28.5056 179.189 31.2839 178.32 33.9491 176.913C40.1914 173.615 43.924 168.447 45.0162 161.537C45.4864 158.568 45.3026 155.496 45.4157 152.471L45.4192 152.467Z" stroke="#F4EED3" stroke-miterlimit="10"/>
<path d="M1.01264 117.212C1.01264 119.29 1.04445 121.369 1.00557 123.444C0.938407 127.137 2.16142 130.513 3.84394 133.666C4.7665 135.398 6.19099 136.95 7.65789 138.289C11.3234 141.637 15.5686 143.789 20.6762 143.91C21.7472 143.934 21.9982 143.538 21.9876 142.552C21.9487 138.159 22.0194 133.765 21.9593 129.371C21.871 123.072 19.5239 117.806 14.8227 113.507C11.2704 110.259 7.08173 108.813 2.43712 108.354C1.11868 108.223 1.01971 108.347 1.01617 109.648C1.00557 112.168 1.01617 114.688 1.01264 117.208V117.212Z" stroke="#F4EED3" stroke-miterlimit="10"/>
<path d="M45.4192 117.194C45.3803 117.194 45.345 117.194 45.3061 117.191C45.3061 114.603 45.2884 112.012 45.3167 109.425C45.3273 108.584 44.995 108.167 44.1714 108.343C41.7184 108.87 39.1416 109.121 36.8546 110.065C32.8498 111.719 29.7145 114.518 27.477 118.346C25.5895 121.574 24.4195 124.956 24.3735 128.682C24.317 133.383 24.37 138.084 24.3417 142.782C24.3382 143.613 24.6174 143.906 25.4622 143.91C28.5056 143.917 31.2839 143.047 33.9491 141.64C40.1914 138.342 43.924 133.175 45.0162 126.264C45.4864 123.295 45.3026 120.223 45.4157 117.198L45.4192 117.194Z" stroke="#F4EED3" stroke-miterlimit="10"/>
<path d="M53.873 187.403C53.873 189.482 53.9048 191.56 53.8659 193.635C53.7988 197.329 55.0218 200.704 56.7043 203.857C57.6268 205.589 59.0513 207.141 60.5182 208.481C64.1802 211.832 68.4254 213.984 73.5366 214.104C74.6076 214.129 74.8586 213.733 74.848 212.747C74.8091 208.353 74.8798 203.96 74.8197 199.566C74.7313 193.267 72.3843 188.001 67.6831 183.702C64.1307 180.454 59.9421 179.008 55.2975 178.549C53.979 178.418 53.8801 178.542 53.8765 179.842C53.8659 182.363 53.8765 184.883 53.873 187.403Z" stroke="#F4EED3" stroke-miterlimit="10"/>
<path d="M98.2796 187.386C98.2407 187.386 98.2053 187.386 98.1664 187.382C98.1664 184.795 98.1488 182.204 98.177 179.616C98.1876 178.775 97.8554 178.358 97.0318 178.535C94.5787 179.061 92.0019 179.312 89.7149 180.256C85.7101 181.91 82.5748 184.71 80.3374 188.538C78.4498 191.765 77.2798 195.148 77.2339 198.873C77.1773 203.574 77.2303 208.276 77.2021 212.973C77.1985 213.804 77.4778 214.097 78.3226 214.101C81.366 214.108 84.1442 213.238 86.8094 211.832C93.0517 208.534 96.7844 203.366 97.8766 196.456C98.3467 193.486 98.1629 190.415 98.276 187.389L98.2796 187.386Z" stroke="#F4EED3" stroke-miterlimit="10"/>
<path d="M53.873 152.134C53.873 154.212 53.9048 156.291 53.8659 158.366C53.7988 162.059 55.0218 165.435 56.7043 168.588C57.6268 170.32 59.0513 171.872 60.5182 173.211C64.1837 176.559 68.4289 178.711 73.5366 178.832C74.6076 178.856 74.8586 178.46 74.848 177.474C74.8091 173.081 74.8798 168.687 74.8197 164.293C74.7313 157.994 72.3843 152.728 67.6831 148.429C64.1307 145.181 59.9421 143.735 55.2975 143.276C53.979 143.145 53.8801 143.269 53.8765 144.57C53.8659 147.09 53.8765 149.61 53.873 152.13V152.134Z" stroke="#F4EED3" stroke-miterlimit="10"/>
<path d="M98.2796 152.116C98.2407 152.116 98.2053 152.116 98.1664 152.113C98.1664 149.525 98.1488 146.934 98.177 144.347C98.1876 143.506 97.8554 143.089 97.0318 143.265C94.5787 143.792 92.0019 144.043 89.7149 144.987C85.7101 146.641 82.5748 149.44 80.3374 153.268C78.4498 156.496 77.2798 159.878 77.2339 163.604C77.1773 168.305 77.2303 173.006 77.2021 177.704C77.1985 178.535 77.4778 178.828 78.3226 178.832C81.366 178.839 84.1442 177.969 86.8094 176.562C93.0517 173.264 96.7844 168.097 97.8766 161.186C98.3467 158.217 98.1629 155.145 98.276 152.12L98.2796 152.116Z" stroke="#F4EED3" stroke-miterlimit="10"/>
<path d="M53.873 116.861C53.873 118.939 53.9048 121.018 53.8659 123.093C53.7988 126.786 55.0218 130.162 56.7043 133.315C57.6268 135.047 59.0513 136.599 60.5182 137.938C64.1837 141.286 68.4289 143.438 73.5366 143.559C74.6076 143.583 74.8586 143.188 74.848 142.201C74.8091 137.808 74.8798 133.414 74.8197 129.02C74.7313 122.722 72.3843 117.455 67.6831 113.157C64.1307 109.908 59.9421 108.463 55.2975 108.003C53.979 107.872 53.8801 107.996 53.8765 109.297C53.8659 111.817 53.8765 114.337 53.873 116.857V116.861Z" stroke="#F4EED3" stroke-miterlimit="10"/>
<path d="M98.2796 116.843C98.2407 116.843 98.2053 116.843 98.1664 116.84C98.1664 114.252 98.1488 111.661 98.177 109.074C98.1876 108.233 97.8554 107.816 97.0318 107.992C94.5787 108.519 92.0019 108.77 89.7149 109.714C85.7101 111.368 82.5748 114.168 80.3374 117.996C78.4498 121.223 77.2798 124.606 77.2339 128.331C77.1773 133.032 77.2303 137.733 77.2021 142.431C77.1985 143.262 77.4778 143.555 78.3226 143.559C81.366 143.566 84.1442 142.696 86.8094 141.289C93.0517 137.991 96.7844 132.824 97.8766 125.913C98.3467 122.944 98.1629 119.873 98.276 116.847L98.2796 116.843Z" stroke="#F4EED3" stroke-miterlimit="10"/>
<path d="M53.873 81.5881C53.873 83.6665 53.9048 85.7449 53.8659 87.8198C53.7988 91.5136 55.0218 94.8892 56.7043 98.0422C57.6268 99.7742 59.0513 101.326 60.5182 102.666C64.1837 106.013 68.4289 108.166 73.5366 108.286C74.6076 108.311 74.8586 107.915 74.848 106.928C74.8091 102.535 74.8798 98.1412 74.8197 93.7475C74.7313 87.4487 72.3843 82.1819 67.6831 77.8837C64.1307 74.6353 59.9421 73.1896 55.2975 72.7301C53.979 72.5993 53.8801 72.7231 53.8765 74.0238C53.8659 76.5441 53.8765 79.0643 53.873 81.5846V81.5881Z" stroke="#F4EED3" stroke-miterlimit="10"/>
<path d="M98.2796 81.574C98.2407 81.574 98.2053 81.574 98.1664 81.5704C98.1664 78.983 98.1488 76.3921 98.177 73.8047C98.1876 72.9634 97.8554 72.5463 97.0318 72.7231C94.5787 73.2497 92.0019 73.5007 89.7149 74.4445C85.7101 76.0987 82.5748 78.8982 80.3374 82.7263C78.4498 85.9535 77.2798 89.3362 77.2339 93.0618C77.1773 97.7629 77.2303 102.464 77.2021 107.162C77.1985 107.992 77.4778 108.286 78.3226 108.289C81.366 108.296 84.1442 107.427 86.8094 106.02C93.0517 102.722 96.7844 97.5544 97.8766 90.644C98.3467 87.6749 98.1629 84.6032 98.276 81.5775L98.2796 81.574Z" stroke="#F4EED3" stroke-miterlimit="10"/>
<path d="M53.873 46.3188C53.873 48.3972 53.9048 50.4756 53.8659 52.5505C53.7988 56.2442 55.0218 59.6199 56.7043 62.7728C57.6268 64.5049 59.0513 66.0566 60.5182 67.3963C64.1837 70.7436 68.4289 72.8963 73.5366 73.0164C74.6076 73.0412 74.8586 72.6453 74.848 71.6591C74.8091 67.2655 74.8798 62.8718 74.8197 58.4782C74.7313 52.1793 72.3843 46.9126 67.6831 42.6144C64.1307 39.366 59.9421 37.9203 55.2975 37.4608C53.979 37.33 53.8801 37.4537 53.8765 38.7545C53.8659 41.2747 53.8765 43.795 53.873 46.3152V46.3188Z" stroke="#F4EED3" stroke-miterlimit="10"/>
<path d="M98.2796 46.3011C98.2407 46.3011 98.2053 46.3011 98.1664 46.2976C98.1664 43.7102 98.1488 41.1192 98.177 38.5318C98.1876 37.6906 97.8554 37.2735 97.0318 37.4502C94.5787 37.9769 92.0019 38.2278 89.7149 39.1716C85.7101 40.8258 82.5748 43.6253 80.3374 47.4534C78.4498 50.6806 77.2798 54.0633 77.2339 57.7889C77.1773 62.4901 77.2303 67.1912 77.2021 71.8889C77.1985 72.7195 77.4778 73.0129 78.3226 73.0164C81.366 73.0235 84.1442 72.154 86.8094 70.7472C93.0517 67.4493 96.7844 62.2815 97.8766 55.3712C98.3467 52.402 98.1629 49.3303 98.276 46.3046L98.2796 46.3011Z" stroke="#F4EED3" stroke-miterlimit="10"/>
</svg>
